<svg xmlns="http://www.w3.org/2000/svg" viewBox="0 0 24 24"><path fill="currentColor" d="M6.001 5a1 1 0 1 0 0 2zm2.79 3.665a1 1 0 1 0 1.284 1.534l-.642-.767zM20.001 19a1 1 0 0 0 0 2zm-5.7-4.575a1 1 0 1 0 1.534 1.284l-.767-.642zM3.93 2.514a1 1 0 0 0-1.414 1.414l.707-.707zm16.644 19.472a1 1 0 1 0 1.414-1.414l-.707.707zm-5.28-17.693L14.586 5zm-6.586 0L8 3.586zm8 1.414L17.414 5zm-9.414 0L6.586 5zM21 7h-1v12.001h2v-12zm-3.586-1v1H20V5h-2.586zM7.293 5.707 8 6.414 9.414 5l-.707-.707L8 3.586 6.586 5zM9.414 4v1h5.172V3H9.414zm5.879.293L14.586 5 16 6.414l.707-.707.707-.707L16 3.586zM12 16.5v-1a3 3 0 0 1-3-3H7a5 5 0 0 0 5 5zm0-8v1a3 3 0 0 1 3 3h2a5 5 0 0 0-5-5zM6.001 6v1h.585V5H6zm3.432 3.432.642.767A2.98 2.98 0 0 1 12 9.5v-2c-1.22 0-2.34.439-3.209 1.165zM15.5 20v-1H4v2h11.5zM3 19h1V7.498H2V19zm13-6.5h-1c0 .734-.262 1.403-.699 1.925l.767.642.767.642A4.98 4.98 0 0 0 17 12.5zM3.222 3.22l-.707.708 18.058 18.058.707-.707.707-.707L3.93 2.514zM14.586 4v1l.707-.707.707-.707A2 2 0 0 0 14.586 3zm-5.879.293L9.414 5V3A2 2 0 0 0 8 3.586zM17.414 6V5l-.707.707-.707.707A2 2 0 0 0 17.414 7zM7.293 5.707 6.586 5v2A2 2 0 0 0 8 6.414zM4 20v-1H2a2 2 0 0 0 2 2zm17-.999h-1v.001-.001q0-.002 0 0h.002v2A2 2 0 0 0 22 19zm0-12h1a2 2 0 0 0-2-2v2z"/></svg>
