<svg xmlns="http://www.w3.org/2000/svg" viewBox="0 0 24 24"><path fill="none" stroke="currentColor" stroke-width="2" d="m7.757 10.586 2.829-2.828m2.851-4.663c.063-.127.063-.127.126 0l.062.12a2.97 2.97 0 0 0 1.298 1.234c.102.051.103.051 0 .102l-.096.05a2.97 2.97 0 0 0-1.264 1.304c-.063.127-.063.127-.126 0l-.062-.12a2.97 2.97 0 0 0-1.298-1.234c-.103-.051-.102-.051 0-.102l.096-.05a2.97 2.97 0 0 0 1.264-1.304Zm4.521 4.968c.042-.084.042-.084.084 0l.041.08a2 2 0 0 0 .866.823c.068.034.068.034 0 .068l-.064.034a2 2 0 0 0-.843.869c-.042.084-.042.084-.084 0l-.041-.08a2 2 0 0 0-.866-.823c-.068-.034-.068-.034 0-.068l.064-.034a2 2 0 0 0 .843-.869ZM4.907 12.658c.093-.21.093-.21.186 0q.045.102.092.201a4.7 4.7 0 0 0 1.92 2.056c.152.085.152.085 0 .17l-.142.085a4.7 4.7 0 0 0-1.87 2.172c-.093.21-.093.21-.186 0l-.092-.201a4.7 4.7 0 0 0-1.92-2.055c-.152-.086-.152-.086 0-.171a4.7 4.7 0 0 0 2.012-2.257Zm12.75 6.413 1.414-1.414a1 1 0 0 0 0-1.414L7.757 4.929a1 1 0 0 0-1.414 0L4.93 6.343a1 1 0 0 0 0 1.414l11.314 11.314a1 1 0 0 0 1.414 0Z"/></svg>
